<svg xmlns="http://www.w3.org/2000/svg" height="24px" viewBox="0 -960 960 960" width="24px" fill="#1f1f1f"><path d="M480-120q-74.54 0-140.23-28.42-65.69-28.43-114.31-77.04-48.61-48.62-77.04-114.31Q120-405.46 120-480q0-74.54 28.42-140.23 28.43-65.69 77.04-114.31 48.62-48.61 114.31-77.04Q405.46-840 480-840q74.54 0 140.23 28.42 65.69 28.43 114.31 77.04 48.61 48.62 77.04 114.31Q840-554.54 840-480v39.54q0 50.54-34.73 85.5T720-320q-35.77 0-65.23-19.62-29.46-19.61-43.54-52.23-22.85 32.85-57.04 52.35T480-320q-66.85 0-113.42-46.58Q320-413.15 320-480t46.58-113.42Q413.15-640 480-640t113.42 46.58Q640-546.85 640-480v39.54q0 32.92 23.54 56.69Q687.08-360 720-360t56.46-23.77Q800-407.54 800-440.46V-480q0-134-93-227t-227-93q-134 0-227 93t-93 227q0 134 93 227t227 93h200v40H480Zm85-275q35-35 35-85t-35-85q-35-35-85-35t-85 35q-35 35-35 85t35 85q35 35 85 35t85-35Z"/></svg>